<mxfile host="app.diagrams.net" modified="2024-03-31T15:29:53.710Z" agent="Mozilla/5.0 (Windows NT 10.0; Win64; x64) AppleWebKit/537.36 (KHTML, like Gecko) Chrome/120.0.0.0 YaBrowser/24.1.0.0 Safari/537.36" etag="d23Gft7dznbCo83ioc0n" version="24.2.0" type="github">
  <diagram name="Страница — 1" id="8aTEOe-QuroDj3xyR8eQ">
    <mxGraphModel dx="1980" dy="1119" grid="1" gridSize="10" guides="1" tooltips="1" connect="1" arrows="1" fold="1" page="1" pageScale="1" pageWidth="1169" pageHeight="827" math="0" shadow="0">
      <root>
        <mxCell id="0" />
        <mxCell id="1" parent="0" />
        <mxCell id="AYj9zMjsYxJNHYWbNuNB-7" value="&lt;b&gt;Обеспечение целостности&lt;/b&gt;" style="swimlane;fontStyle=0;childLayout=stackLayout;horizontal=1;startSize=40;horizontalStack=0;resizeParent=1;resizeParentMax=0;resizeLast=0;collapsible=1;marginBottom=0;whiteSpace=wrap;html=1;" parent="1" vertex="1">
          <mxGeometry x="1220" y="40" width="280" height="240" as="geometry" />
        </mxCell>
        <mxCell id="AYj9zMjsYxJNHYWbNuNB-8" value="Использование блокчейна" style="text;strokeColor=none;fillColor=none;align=left;verticalAlign=middle;spacingLeft=4;spacingRight=4;overflow=hidden;points=[[0,0.5],[1,0.5]];portConstraint=eastwest;rotatable=0;whiteSpace=wrap;html=1;fontColor=#000000;" parent="AYj9zMjsYxJNHYWbNuNB-7" vertex="1">
          <mxGeometry y="40" width="280" height="30" as="geometry" />
        </mxCell>
        <mxCell id="AYj9zMjsYxJNHYWbNuNB-45" value="Взаимодействие с биржами / Marketplace operation" style="text;strokeColor=none;fillColor=none;align=left;verticalAlign=middle;spacingLeft=4;spacingRight=4;overflow=hidden;points=[[0,0.5],[1,0.5]];portConstraint=eastwest;rotatable=0;whiteSpace=wrap;html=1;labelBackgroundColor=default;fontColor=#000000;" parent="AYj9zMjsYxJNHYWbNuNB-7" vertex="1">
          <mxGeometry y="70" width="280" height="30" as="geometry" />
        </mxCell>
        <mxCell id="AYj9zMjsYxJNHYWbNuNB-27" value="Первичная или вторичная продажа токенов /&amp;nbsp;Primary or Secondary Marketplace" style="text;strokeColor=none;fillColor=none;align=left;verticalAlign=middle;spacingLeft=4;spacingRight=4;overflow=hidden;points=[[0,0.5],[1,0.5]];portConstraint=eastwest;rotatable=0;whiteSpace=wrap;html=1;fontColor=#000000;" parent="AYj9zMjsYxJNHYWbNuNB-7" vertex="1">
          <mxGeometry y="100" width="280" height="40" as="geometry" />
        </mxCell>
        <mxCell id="AYj9zMjsYxJNHYWbNuNB-35" value="Выполнение требований KYC/ AML при покупке-продаже токенов / KYC/ AML compliance of buy-sell opearations" style="text;strokeColor=none;fillColor=none;align=left;verticalAlign=middle;spacingLeft=4;spacingRight=4;overflow=hidden;points=[[0,0.5],[1,0.5]];portConstraint=eastwest;rotatable=0;whiteSpace=wrap;html=1;fontColor=#000000;" parent="AYj9zMjsYxJNHYWbNuNB-7" vertex="1">
          <mxGeometry y="140" width="280" height="60" as="geometry" />
        </mxCell>
        <mxCell id="AYj9zMjsYxJNHYWbNuNB-46" value="Обеспечение безопасности / Security" style="text;strokeColor=none;fillColor=none;align=left;verticalAlign=middle;spacingLeft=4;spacingRight=4;overflow=hidden;points=[[0,0.5],[1,0.5]];portConstraint=eastwest;rotatable=0;whiteSpace=wrap;html=1;fontColor=#000000;" parent="AYj9zMjsYxJNHYWbNuNB-7" vertex="1">
          <mxGeometry y="200" width="280" height="40" as="geometry" />
        </mxCell>
        <mxCell id="AYj9zMjsYxJNHYWbNuNB-13" value="&lt;b&gt;Токенизация&lt;/b&gt;" style="swimlane;fontStyle=0;childLayout=stackLayout;horizontal=1;startSize=40;horizontalStack=0;resizeParent=1;resizeParentMax=0;resizeLast=0;collapsible=1;marginBottom=0;whiteSpace=wrap;html=1;" parent="1" vertex="1">
          <mxGeometry x="830" y="40" width="280" height="230" as="geometry" />
        </mxCell>
        <mxCell id="AYj9zMjsYxJNHYWbNuNB-14" value="Выбор токена / Token selection:&lt;br&gt;&amp;nbsp;- ERC-20&lt;br&gt;&amp;nbsp;- ERC-721 (NFT)&lt;br&gt;&amp;nbsp;- ERC-3643" style="text;strokeColor=none;fillColor=none;align=left;verticalAlign=middle;spacingLeft=4;spacingRight=4;overflow=hidden;points=[[0,0.5],[1,0.5]];portConstraint=eastwest;rotatable=0;whiteSpace=wrap;html=1;" parent="AYj9zMjsYxJNHYWbNuNB-13" vertex="1">
          <mxGeometry y="40" width="280" height="70" as="geometry" />
        </mxCell>
        <mxCell id="AYj9zMjsYxJNHYWbNuNB-33" value="Выпуск токенов" style="text;strokeColor=none;fillColor=none;align=left;verticalAlign=middle;spacingLeft=4;spacingRight=4;overflow=hidden;points=[[0,0.5],[1,0.5]];portConstraint=eastwest;rotatable=0;whiteSpace=wrap;html=1;fontColor=#000000;" parent="AYj9zMjsYxJNHYWbNuNB-13" vertex="1">
          <mxGeometry y="110" width="280" height="40" as="geometry" />
        </mxCell>
        <mxCell id="AYj9zMjsYxJNHYWbNuNB-17" value="Заморозка токенов" style="text;strokeColor=none;fillColor=none;align=left;verticalAlign=middle;spacingLeft=4;spacingRight=4;overflow=hidden;points=[[0,0.5],[1,0.5]];portConstraint=eastwest;rotatable=0;whiteSpace=wrap;html=1;fontColor=#000000;" parent="AYj9zMjsYxJNHYWbNuNB-13" vertex="1">
          <mxGeometry y="150" width="280" height="40" as="geometry" />
        </mxCell>
        <mxCell id="AYj9zMjsYxJNHYWbNuNB-18" value="Займы под залог токенов" style="text;strokeColor=none;fillColor=none;align=left;verticalAlign=middle;spacingLeft=4;spacingRight=4;overflow=hidden;points=[[0,0.5],[1,0.5]];portConstraint=eastwest;rotatable=0;whiteSpace=wrap;html=1;fontColor=#000000;" parent="AYj9zMjsYxJNHYWbNuNB-13" vertex="1">
          <mxGeometry y="190" width="280" height="40" as="geometry" />
        </mxCell>
        <mxCell id="AYj9zMjsYxJNHYWbNuNB-22" value="&lt;b&gt;Оцифровка актива&lt;/b&gt;" style="swimlane;fontStyle=0;childLayout=stackLayout;horizontal=1;startSize=40;horizontalStack=0;resizeParent=1;resizeParentMax=0;resizeLast=0;collapsible=1;marginBottom=0;whiteSpace=wrap;html=1;" parent="1" vertex="1">
          <mxGeometry x="440" y="40" width="280" height="290" as="geometry" />
        </mxCell>
        <mxCell id="AYj9zMjsYxJNHYWbNuNB-24" value="&lt;font&gt;Финансовая структура:&lt;br&gt;&amp;nbsp;- Инвестиционный фон недвижимости (REIT)&lt;br&gt;&amp;nbsp;- Фонд недвижимости&lt;br&gt;&amp;nbsp;- Финансирование строящихся объектов&lt;br&gt;&lt;/font&gt;&lt;div&gt;&lt;font&gt;&amp;nbsp;- Обеспечение токенов&lt;/font&gt;&lt;/div&gt;" style="text;strokeColor=none;fillColor=none;align=left;verticalAlign=middle;spacingLeft=4;spacingRight=4;overflow=hidden;points=[[0,0.5],[1,0.5]];portConstraint=eastwest;rotatable=0;whiteSpace=wrap;html=1;fontColor=#000000;" parent="AYj9zMjsYxJNHYWbNuNB-22" vertex="1">
          <mxGeometry y="40" width="280" height="80" as="geometry" />
        </mxCell>
        <mxCell id="AYj9zMjsYxJNHYWbNuNB-25" value="Тип инвестирования:&lt;br&gt;&amp;nbsp;- дробное&lt;br&gt;&amp;nbsp;- полное" style="text;strokeColor=none;fillColor=none;align=left;verticalAlign=middle;spacingLeft=4;spacingRight=4;overflow=hidden;points=[[0,0.5],[1,0.5]];portConstraint=eastwest;rotatable=0;whiteSpace=wrap;html=1;" parent="AYj9zMjsYxJNHYWbNuNB-22" vertex="1">
          <mxGeometry y="120" width="280" height="70" as="geometry" />
        </mxCell>
        <mxCell id="AYj9zMjsYxJNHYWbNuNB-50" value="Идентификация актива" style="text;strokeColor=none;fillColor=none;align=left;verticalAlign=middle;spacingLeft=4;spacingRight=4;overflow=hidden;points=[[0,0.5],[1,0.5]];portConstraint=eastwest;rotatable=0;whiteSpace=wrap;html=1;" parent="AYj9zMjsYxJNHYWbNuNB-22" vertex="1">
          <mxGeometry y="190" width="280" height="30" as="geometry" />
        </mxCell>
        <mxCell id="AYj9zMjsYxJNHYWbNuNB-52" value="Проверка права собственности" style="text;strokeColor=none;fillColor=none;align=left;verticalAlign=middle;spacingLeft=4;spacingRight=4;overflow=hidden;points=[[0,0.5],[1,0.5]];portConstraint=eastwest;rotatable=0;whiteSpace=wrap;html=1;" parent="AYj9zMjsYxJNHYWbNuNB-22" vertex="1">
          <mxGeometry y="220" width="280" height="30" as="geometry" />
        </mxCell>
        <mxCell id="AYj9zMjsYxJNHYWbNuNB-51" value="Оценка актива" style="text;strokeColor=none;fillColor=none;align=left;verticalAlign=middle;spacingLeft=4;spacingRight=4;overflow=hidden;points=[[0,0.5],[1,0.5]];portConstraint=eastwest;rotatable=0;whiteSpace=wrap;html=1;" parent="AYj9zMjsYxJNHYWbNuNB-22" vertex="1">
          <mxGeometry y="250" width="280" height="40" as="geometry" />
        </mxCell>
        <mxCell id="AYj9zMjsYxJNHYWbNuNB-37" value="&lt;b&gt;Юрисдикция&lt;/b&gt;" style="swimlane;fontStyle=0;childLayout=stackLayout;horizontal=1;startSize=40;horizontalStack=0;resizeParent=1;resizeParentMax=0;resizeLast=0;collapsible=1;marginBottom=0;whiteSpace=wrap;html=1;" parent="1" vertex="1">
          <mxGeometry x="80" y="40" width="280" height="80" as="geometry" />
        </mxCell>
        <mxCell id="AYj9zMjsYxJNHYWbNuNB-38" value="Требования законодательства" style="text;strokeColor=none;fillColor=none;align=left;verticalAlign=middle;spacingLeft=4;spacingRight=4;overflow=hidden;points=[[0,0.5],[1,0.5]];portConstraint=eastwest;rotatable=0;whiteSpace=wrap;html=1;" parent="AYj9zMjsYxJNHYWbNuNB-37" vertex="1">
          <mxGeometry y="40" width="280" height="40" as="geometry" />
        </mxCell>
        <mxCell id="AYj9zMjsYxJNHYWbNuNB-41" style="edgeStyle=orthogonalEdgeStyle;rounded=0;orthogonalLoop=1;jettySize=auto;html=1;exitX=1;exitY=0.14;exitDx=0;exitDy=0;entryX=-0.002;entryY=0.08;entryDx=0;entryDy=0;entryPerimeter=0;exitPerimeter=0;" parent="1" source="AYj9zMjsYxJNHYWbNuNB-37" target="AYj9zMjsYxJNHYWbNuNB-22" edge="1">
          <mxGeometry relative="1" as="geometry">
            <Array as="points">
              <mxPoint x="360" y="63" />
            </Array>
          </mxGeometry>
        </mxCell>
        <mxCell id="XwpiXils2I6dUQmR3zYr-1" value="" style="endArrow=classic;html=1;rounded=0;exitX=0.998;exitY=0.068;exitDx=0;exitDy=0;exitPerimeter=0;entryX=0.001;entryY=0.088;entryDx=0;entryDy=0;entryPerimeter=0;" edge="1" parent="1" source="AYj9zMjsYxJNHYWbNuNB-22" target="AYj9zMjsYxJNHYWbNuNB-13">
          <mxGeometry width="50" height="50" relative="1" as="geometry">
            <mxPoint x="740" y="180" as="sourcePoint" />
            <mxPoint x="790" y="130" as="targetPoint" />
          </mxGeometry>
        </mxCell>
        <mxCell id="XwpiXils2I6dUQmR3zYr-14" value="" style="endArrow=classic;html=1;rounded=0;exitX=1.003;exitY=0.088;exitDx=0;exitDy=0;exitPerimeter=0;entryX=0.003;entryY=0.088;entryDx=0;entryDy=0;entryPerimeter=0;" edge="1" parent="1" source="AYj9zMjsYxJNHYWbNuNB-13" target="AYj9zMjsYxJNHYWbNuNB-7">
          <mxGeometry width="50" height="50" relative="1" as="geometry">
            <mxPoint x="1120" y="360" as="sourcePoint" />
            <mxPoint x="1170" y="310" as="targetPoint" />
          </mxGeometry>
        </mxCell>
      </root>
    </mxGraphModel>
  </diagram>
</mxfile>
